<?xml version="1.0" encoding="iso-8859-1"?>
<!-- Generator: Adobe Illustrator 16.0.0, SVG Export Plug-In . SVG Version: 6.00 Build 0)  -->
<!DOCTYPE svg PUBLIC "-//W3C//DTD SVG 1.1//EN" "http://www.w3.org/Graphics/SVG/1.1/DTD/svg11.dtd">
<svg version="1.1" id="Capa_1" xmlns="http://www.w3.org/2000/svg" xmlns:xlink="http://www.w3.org/1999/xlink" x="0px" y="0px"
	 width="31.794px" height="28.124px" viewBox="0 0 31.794 28.124" style="enable-background:new 0 0 31.794 28.124;"
	 xml:space="preserve">
<path d="M31.5,3.525l-2.832-2.836c-0.395-0.392-1.031-0.392-1.426,0c-0.227,0.23-0.309,0.543-0.266,0.842
	c-0.213,0-0.42,0.083-0.602,0.217l-0.02-0.021l-7.34,7.337c0.07,0.645-0.086,1.303-0.459,1.863l0.773,0.782l0.018-0.019l0.074,0.076
	l-1.619,1.617l-5.318-5.313c0.598-2.139,0.057-4.531-1.623-6.214C9.187,0.191,6.824-0.355,4.697,0.223L8.3,3.823L7.353,7.352
	L3.822,8.297l-3.6-3.601c-0.576,2.126-0.031,4.489,1.639,6.161c1.752,1.752,4.273,2.266,6.48,1.548l0.018,0.019l5.205,5.201
	l-4.951,4.951l-0.27-0.264l-1.387,1.119l-2.344,3.696l0.598,0.599l3.695-2.343l1.125-1.391l-0.268-0.265l4.951-4.951l8.465,8.465
	c0.586,0.586,1.357,0.882,2.123,0.882c0.77,0,1.535-0.296,2.125-0.882c1.17-1.168,1.17-3.068,0-4.245l-8.471-8.462l1.588-1.59
	l0.695,0.707c0.566-0.385,1.23-0.549,1.885-0.478l7.238-7.236l0.104-0.101l-0.021-0.021c0.137-0.182,0.215-0.39,0.215-0.601
	c0.301,0.04,0.611-0.039,0.84-0.27C31.892,4.555,31.892,3.918,31.5,3.525z M25.56,24.446c0.637,0,1.148,0.511,1.148,1.146
	c0,0.632-0.512,1.147-1.148,1.147c-0.631,0-1.143-0.516-1.143-1.147C24.417,24.957,24.929,24.446,25.56,24.446z M21.449,9.464
	L20.974,8.99l5.441-5.438l0.471,0.474L21.449,9.464z M23.22,11.238l-0.473-0.473l5.439-5.439l0.473,0.473L23.22,11.238z"/>
<g>
</g>
<g>
</g>
<g>
</g>
<g>
</g>
<g>
</g>
<g>
</g>
<g>
</g>
<g>
</g>
<g>
</g>
<g>
</g>
<g>
</g>
<g>
</g>
<g>
</g>
<g>
</g>
<g>
</g>
</svg>
