<?xml version="1.0" encoding="utf-8"?>
<!-- Generator: Adobe Illustrator 16.0.4, SVG Export Plug-In . SVG Version: 6.00 Build 0)  -->
<!DOCTYPE svg PUBLIC "-//W3C//DTD SVG 1.1//EN" "http://www.w3.org/Graphics/SVG/1.1/DTD/svg11.dtd">
<svg version="1.1" id="Layer_1" xmlns="http://www.w3.org/2000/svg" xmlns:xlink="http://www.w3.org/1999/xlink" x="0px" y="0px"
	 width="21.953px" height="23.8px" viewBox="0 0 21.953 23.8" enable-background="new 0 0 21.953 23.8" xml:space="preserve">
<path d="M14,2.5C14,1.119,15.119,0,16.5,0S19,1.119,19,2.5S17.88,5,16.5,5S14,3.881,14,2.5z M7.4,13.5l-1.3,1.801H1.4
	c-0.7,0-1.4,0.6-1.4,1.3C0,17.4,0.601,18,1.4,18h5.5c0.5,0,0.9-0.199,1.2-0.699l1.3-1.899C9.3,15.4,7.5,14.201,7.4,13.5z M21.1,10.8
	l-3.7-0.9l-1.1-3.4c-0.024-0.074-0.071-0.128-0.107-0.192C16.136,6.138,16.021,5.965,15.8,5.8l-1.647-1.099
	c-0.124-0.129-0.267-0.239-0.452-0.301L9.9,3.1C9.601,3,9.201,3,9,3.1l-4.3,2.3c-0.6,0.3-0.8,1-0.5,1.5c0.2,0.4,0.5,0.6,0.9,0.6
	c0.2,0,0.4,0,0.6-0.1l3.9-2l2.304,0.813L8.9,10.8c-0.565,0.97-0.854,1.936-0.264,2.694C8.742,13.692,8.881,13.875,9.101,14
	L12.9,16.8l-2.299,5.1c-0.3,0.699,0,1.5,0.7,1.801c0.199,0.1,0.4,0.1,0.6,0.1c0.5,0,1-0.301,1.199-0.801l2.7-6.199
	c0.3-0.5,0.101-1.2-0.399-1.6l-2.973-2.168l2.401-3.896L15.5,11.2c0.101,0.4,0.4,0.7,0.801,0.8l4.3,1.1h0.101
	c0.6,0.101,1.1-0.3,1.199-0.899C22.1,11.5,21.701,10.9,21.1,10.8z"/>
</svg>
