<?xml version="1.0" encoding="utf-8"?>
<!-- Generator: Adobe Illustrator 16.0.0, SVG Export Plug-In . SVG Version: 6.00 Build 0)  -->
<!DOCTYPE svg PUBLIC "-//W3C//DTD SVG 1.1//EN" "http://www.w3.org/Graphics/SVG/1.1/DTD/svg11.dtd">
<svg version="1.1" id="Layer_1" xmlns="http://www.w3.org/2000/svg" xmlns:xlink="http://www.w3.org/1999/xlink" x="0px" y="0px"
	 width="48px" height="48px" viewBox="0 0 48 48" enable-background="new 0 0 48 48" xml:space="preserve">
<g>
	<path d="M33.606,27.746l-1.15-0.289l0.003,0.004l-2.557,5.306c-0.139,0.29-0.422,0.482-0.742,0.507
		c-0.32,0.024-0.629-0.124-0.811-0.389l-2.051-2.998c-0.109-0.16-0.285-0.262-0.478-0.278c-0.193-0.016-0.383,0.056-0.518,0.195
		l-0.501,0.519c-0.121,0.126-0.289,0.197-0.463,0.197s-0.342-0.071-0.463-0.197l-0.502-0.52c-0.134-0.14-0.324-0.211-0.518-0.195
		c-0.193,0.017-0.368,0.119-0.478,0.278l-2.051,2.998c-0.181,0.265-0.49,0.413-0.811,0.389c-0.32-0.024-0.603-0.217-0.742-0.507
		l-2.557-5.306l0.003-0.004l-1.167,0.289c-4.794,1.2-8.172,5.508-8.172,10.45v6.489C6.883,45.964,7.948,47,9.226,47h30.225
		c1.277,0,2.312-1.036,2.312-2.314v-6.489C41.763,33.254,38.401,28.946,33.606,27.746z M24.338,45.154
		c-0.543,0-0.983-0.441-0.983-0.984c0-0.543,0.44-0.983,0.983-0.983s0.984,0.44,0.984,0.983
		C25.322,44.713,24.882,45.154,24.338,45.154z M24.338,40.395c-0.543,0-0.983-0.44-0.983-0.983s0.44-0.983,0.983-0.983
		s0.984,0.44,0.984,0.983S24.882,40.395,24.338,40.395z M24.338,35.636c-0.543,0-0.983-0.44-0.983-0.984
		c0-0.543,0.44-0.984,0.983-0.984s0.984,0.441,0.984,0.984C25.322,35.195,24.882,35.636,24.338,35.636z"/>
	<path d="M13.627,13.094c-0.889,0.411-1.554,1.362-1.376,3.521c0.188,2.287,1.338,3.318,2.586,3.585
		c1.768,4.329,5.273,7.902,9.422,7.902c4.139,0,7.638-3.556,9.409-7.871c1.313-0.208,2.561-1.225,2.758-3.616
		c0.149-1.814-0.297-2.776-0.97-3.281c1.517-7.804-3.881-9.366-3.881-9.366s-5.042-6.043-13.932-1.322
		c-1.743,0.926-3.514,2.851-4.685,5.218c-0.167,0.336-0.125,0.739,0.106,1.034c0.232,0.295,0.613,0.432,0.98,0.35
		C13.038,11.449,13.632,12.959,13.627,13.094z M15.643,13.008c6.732-0.031,10.796-2.837,13.065-5.289
		c2.377,2.37,3.564,5.391,4.145,7.543c-0.455,5.139-4.116,10.826-8.593,10.826c-4.787,0-8.641-6.5-8.641-11.882
		C15.619,13.79,15.627,13.392,15.643,13.008z"/>
</g>
</svg>
